<mxfile host="app.diagrams.net" agent="Mozilla/5.0 (Macintosh; Intel Mac OS X 10_15_7) AppleWebKit/537.36 (KHTML, like Gecko) Chrome/126.0.0.0 Safari/537.36" version="24.7.4">
  <diagram name="第 1 页" id="Oe-4cTkl3s7n0xvDIH4M">
    <mxGraphModel dx="6310" dy="5865" grid="1" gridSize="10" guides="1" tooltips="1" connect="1" arrows="1" fold="1" page="1" pageScale="1" pageWidth="4681" pageHeight="3300" math="0" shadow="0">
      <root>
        <mxCell id="0" />
        <mxCell id="1" parent="0" />
        <mxCell id="RSwYuJNzkGerV1QqQmZ3-30" value="" style="whiteSpace=wrap;html=1;aspect=fixed;" parent="1" vertex="1">
          <mxGeometry x="1430" y="-105" width="645" height="645" as="geometry" />
        </mxCell>
        <mxCell id="RSwYuJNzkGerV1QqQmZ3-29" value="" style="whiteSpace=wrap;html=1;aspect=fixed;" parent="1" vertex="1">
          <mxGeometry x="1380" y="-65" width="645" height="645" as="geometry" />
        </mxCell>
        <mxCell id="RSwYuJNzkGerV1QqQmZ3-28" value="" style="whiteSpace=wrap;html=1;aspect=fixed;fillColor=#e1d5e7;strokeColor=#9673a6;" parent="1" vertex="1">
          <mxGeometry x="1330" y="-25" width="645" height="645" as="geometry" />
        </mxCell>
        <mxCell id="RSwYuJNzkGerV1QqQmZ3-15" style="edgeStyle=orthogonalEdgeStyle;rounded=0;orthogonalLoop=1;jettySize=auto;html=1;entryX=0.5;entryY=0;entryDx=0;entryDy=0;" parent="1" source="RSwYuJNzkGerV1QqQmZ3-8" target="RSwYuJNzkGerV1QqQmZ3-5" edge="1">
          <mxGeometry relative="1" as="geometry" />
        </mxCell>
        <mxCell id="RSwYuJNzkGerV1QqQmZ3-8" value="" style="rounded=1;whiteSpace=wrap;html=1;" parent="1" vertex="1">
          <mxGeometry x="190" y="685" width="560" height="130" as="geometry" />
        </mxCell>
        <mxCell id="RSwYuJNzkGerV1QqQmZ3-5" value="" style="rounded=0;whiteSpace=wrap;html=1;fillColor=#fff2cc;strokeColor=#d6b656;" parent="1" vertex="1">
          <mxGeometry x="150" y="850" width="640" height="640" as="geometry" />
        </mxCell>
        <mxCell id="RSwYuJNzkGerV1QqQmZ3-1" value="Crtc1" style="rounded=1;whiteSpace=wrap;html=1;fillColor=#dae8fc;strokeColor=#6c8ebf;" parent="1" vertex="1">
          <mxGeometry x="310" y="720" width="140" height="60" as="geometry" />
        </mxCell>
        <mxCell id="RSwYuJNzkGerV1QqQmZ3-2" value="Crtc2" style="rounded=1;whiteSpace=wrap;html=1;fillColor=#e1d5e7;strokeColor=#9673a6;" parent="1" vertex="1">
          <mxGeometry x="490" y="720" width="140" height="60" as="geometry" />
        </mxCell>
        <mxCell id="RSwYuJNzkGerV1QqQmZ3-3" value="&lt;font style=&quot;font-size: 44px;&quot;&gt;DSI-1&lt;/font&gt;" style="rounded=0;whiteSpace=wrap;html=1;fillColor=#dae8fc;strokeColor=#6c8ebf;" parent="1" vertex="1">
          <mxGeometry x="150" y="1190" width="150" height="240" as="geometry" />
        </mxCell>
        <mxCell id="RSwYuJNzkGerV1QqQmZ3-4" value="&lt;font style=&quot;font-size: 44px;&quot;&gt;HDMI-1&lt;/font&gt;" style="rounded=0;whiteSpace=wrap;html=1;fillColor=#e1d5e7;strokeColor=#9673a6;" parent="1" vertex="1">
          <mxGeometry x="150" y="860" width="640" height="330" as="geometry" />
        </mxCell>
        <mxCell id="RSwYuJNzkGerV1QqQmZ3-9" value="&lt;font style=&quot;font-size: 24px;&quot;&gt;DPU&lt;/font&gt;" style="text;html=1;align=center;verticalAlign=middle;whiteSpace=wrap;rounded=0;" parent="1" vertex="1">
          <mxGeometry x="200" y="685" width="70" height="35" as="geometry" />
        </mxCell>
        <mxCell id="RSwYuJNzkGerV1QqQmZ3-17" style="edgeStyle=orthogonalEdgeStyle;rounded=0;orthogonalLoop=1;jettySize=auto;html=1;entryX=0.5;entryY=0;entryDx=0;entryDy=0;" parent="1" source="RSwYuJNzkGerV1QqQmZ3-18" target="RSwYuJNzkGerV1QqQmZ3-19" edge="1">
          <mxGeometry relative="1" as="geometry" />
        </mxCell>
        <mxCell id="RSwYuJNzkGerV1QqQmZ3-18" value="" style="rounded=1;whiteSpace=wrap;html=1;" parent="1" vertex="1">
          <mxGeometry x="1330" y="695" width="560" height="130" as="geometry" />
        </mxCell>
        <mxCell id="RSwYuJNzkGerV1QqQmZ3-19" value="" style="rounded=0;whiteSpace=wrap;html=1;fillColor=#fff2cc;strokeColor=#d6b656;" parent="1" vertex="1">
          <mxGeometry x="1280" y="860" width="660" height="630" as="geometry" />
        </mxCell>
        <mxCell id="RSwYuJNzkGerV1QqQmZ3-20" value="Crtc1" style="rounded=1;whiteSpace=wrap;html=1;fillColor=#dae8fc;strokeColor=#6c8ebf;" parent="1" vertex="1">
          <mxGeometry x="1450" y="730" width="140" height="60" as="geometry" />
        </mxCell>
        <mxCell id="RSwYuJNzkGerV1QqQmZ3-21" value="Crtc2" style="rounded=1;whiteSpace=wrap;html=1;fillColor=#e1d5e7;strokeColor=#9673a6;" parent="1" vertex="1">
          <mxGeometry x="1630" y="730" width="140" height="60" as="geometry" />
        </mxCell>
        <mxCell id="RSwYuJNzkGerV1QqQmZ3-23" value="&lt;font style=&quot;font-size: 44px;&quot;&gt;HDMI-1&lt;/font&gt;" style="rounded=0;whiteSpace=wrap;html=1;fillColor=#e1d5e7;strokeColor=#9673a6;" parent="1" vertex="1">
          <mxGeometry x="1290" y="880" width="640" height="330" as="geometry" />
        </mxCell>
        <mxCell id="RSwYuJNzkGerV1QqQmZ3-24" style="edgeStyle=orthogonalEdgeStyle;rounded=0;orthogonalLoop=1;jettySize=auto;html=1;entryX=0.5;entryY=0;entryDx=0;entryDy=0;" parent="1" source="RSwYuJNzkGerV1QqQmZ3-25" target="RSwYuJNzkGerV1QqQmZ3-18" edge="1">
          <mxGeometry relative="1" as="geometry" />
        </mxCell>
        <mxCell id="RSwYuJNzkGerV1QqQmZ3-25" value="&lt;span style=&quot;font-size: 33px;&quot;&gt;primary&lt;/span&gt;" style="rounded=0;whiteSpace=wrap;html=1;fillColor=#dae8fc;strokeColor=#6c8ebf;" parent="1" vertex="1">
          <mxGeometry x="1280" y="20" width="660" height="640" as="geometry" />
        </mxCell>
        <mxCell id="RSwYuJNzkGerV1QqQmZ3-26" value="&lt;font style=&quot;font-size: 24px;&quot;&gt;DPU&lt;/font&gt;" style="text;html=1;align=center;verticalAlign=middle;whiteSpace=wrap;rounded=0;" parent="1" vertex="1">
          <mxGeometry x="1340" y="695" width="70" height="35" as="geometry" />
        </mxCell>
        <mxCell id="RSwYuJNzkGerV1QqQmZ3-43" style="edgeStyle=orthogonalEdgeStyle;rounded=0;orthogonalLoop=1;jettySize=auto;html=1;" parent="1" source="RSwYuJNzkGerV1QqQmZ3-27" target="RSwYuJNzkGerV1QqQmZ3-21" edge="1">
          <mxGeometry relative="1" as="geometry" />
        </mxCell>
        <mxCell id="RSwYuJNzkGerV1QqQmZ3-27" value="&lt;font style=&quot;font-size: 24px;&quot;&gt;Video&lt;/font&gt;" style="rounded=0;whiteSpace=wrap;html=1;fillColor=#647687;fontColor=#ffffff;strokeColor=#314354;" parent="1" vertex="1">
          <mxGeometry x="1490" y="465" width="420" height="205" as="geometry" />
        </mxCell>
        <mxCell id="RSwYuJNzkGerV1QqQmZ3-37" style="edgeStyle=orthogonalEdgeStyle;rounded=0;orthogonalLoop=1;jettySize=auto;html=1;" parent="1" source="RSwYuJNzkGerV1QqQmZ3-31" target="RSwYuJNzkGerV1QqQmZ3-1" edge="1">
          <mxGeometry relative="1" as="geometry" />
        </mxCell>
        <mxCell id="RSwYuJNzkGerV1QqQmZ3-31" value="" style="whiteSpace=wrap;html=1;aspect=fixed;fillColor=#dae8fc;strokeColor=#6c8ebf;" parent="1" vertex="1">
          <mxGeometry x="-200" y="-10" width="645" height="645" as="geometry" />
        </mxCell>
        <mxCell id="RSwYuJNzkGerV1QqQmZ3-32" value="&lt;font style=&quot;font-size: 33px;&quot;&gt;framebuffer&lt;/font&gt;&lt;div&gt;&lt;font style=&quot;font-size: 33px;&quot;&gt;4096x4096&lt;/font&gt;&lt;/div&gt;" style="rounded=0;whiteSpace=wrap;html=1;fillColor=#fff2cc;strokeColor=#d6b656;" parent="1" vertex="1">
          <mxGeometry x="150" y="-710" width="640" height="640" as="geometry" />
        </mxCell>
        <mxCell id="RSwYuJNzkGerV1QqQmZ3-38" style="edgeStyle=orthogonalEdgeStyle;rounded=0;orthogonalLoop=1;jettySize=auto;html=1;entryX=0.5;entryY=0;entryDx=0;entryDy=0;" parent="1" source="RSwYuJNzkGerV1QqQmZ3-33" target="RSwYuJNzkGerV1QqQmZ3-2" edge="1">
          <mxGeometry relative="1" as="geometry" />
        </mxCell>
        <mxCell id="RSwYuJNzkGerV1QqQmZ3-33" value="" style="whiteSpace=wrap;html=1;aspect=fixed;fillColor=#e1d5e7;strokeColor=#9673a6;" parent="1" vertex="1">
          <mxGeometry x="490" y="-15" width="645" height="645" as="geometry" />
        </mxCell>
        <mxCell id="RSwYuJNzkGerV1QqQmZ3-34" value="" style="rounded=0;whiteSpace=wrap;html=1;" parent="1" vertex="1">
          <mxGeometry x="-200" y="-10" width="150" height="240" as="geometry" />
        </mxCell>
        <mxCell id="RSwYuJNzkGerV1QqQmZ3-35" value="" style="rounded=0;whiteSpace=wrap;html=1;" parent="1" vertex="1">
          <mxGeometry x="490" y="-15" width="640" height="330" as="geometry" />
        </mxCell>
        <mxCell id="RSwYuJNzkGerV1QqQmZ3-39" value="&lt;font style=&quot;font-size: 24px;&quot;&gt;primary1&lt;/font&gt;" style="text;html=1;align=center;verticalAlign=middle;whiteSpace=wrap;rounded=0;" parent="1" vertex="1">
          <mxGeometry x="80" y="530" width="70" height="35" as="geometry" />
        </mxCell>
        <mxCell id="RSwYuJNzkGerV1QqQmZ3-40" value="&lt;font style=&quot;font-size: 24px;&quot;&gt;primary2&lt;/font&gt;" style="text;html=1;align=center;verticalAlign=middle;whiteSpace=wrap;rounded=0;" parent="1" vertex="1">
          <mxGeometry x="780" y="520" width="70" height="35" as="geometry" />
        </mxCell>
        <mxCell id="RSwYuJNzkGerV1QqQmZ3-41" value="&lt;font style=&quot;font-size: 24px;&quot;&gt;overlay1&lt;/font&gt;" style="text;html=1;align=center;verticalAlign=middle;whiteSpace=wrap;rounded=0;" parent="1" vertex="1">
          <mxGeometry x="1670" y="610" width="70" height="35" as="geometry" />
        </mxCell>
        <mxCell id="RSwYuJNzkGerV1QqQmZ3-42" value="&lt;font style=&quot;font-size: 24px;&quot;&gt;Video&lt;/font&gt;" style="rounded=0;whiteSpace=wrap;html=1;fillColor=#647687;fontColor=#ffffff;strokeColor=#314354;" parent="1" vertex="1">
          <mxGeometry x="1360" y="1080" width="420" height="210" as="geometry" />
        </mxCell>
        <mxCell id="RSwYuJNzkGerV1QqQmZ3-22" value="&lt;font style=&quot;font-size: 44px;&quot;&gt;DSI-1&lt;/font&gt;" style="rounded=0;whiteSpace=wrap;html=1;fillColor=#dae8fc;strokeColor=#6c8ebf;" parent="1" vertex="1">
          <mxGeometry x="1290" y="1210" width="150" height="240" as="geometry" />
        </mxCell>
        <mxCell id="eqNbIaN43NpxdxYcb78C-1" value="" style="rounded=0;whiteSpace=wrap;html=1;fillColor=#d80073;strokeColor=#A50040;fontColor=#ffffff;" vertex="1" parent="1">
          <mxGeometry x="65" y="2230" width="100" height="50" as="geometry" />
        </mxCell>
        <mxCell id="eqNbIaN43NpxdxYcb78C-2" value="" style="endArrow=none;dashed=1;html=1;rounded=0;" edge="1" parent="1">
          <mxGeometry width="50" height="50" relative="1" as="geometry">
            <mxPoint x="60" y="2680" as="sourcePoint" />
            <mxPoint x="60" y="2220" as="targetPoint" />
          </mxGeometry>
        </mxCell>
        <mxCell id="eqNbIaN43NpxdxYcb78C-3" value="" style="endArrow=none;dashed=1;html=1;rounded=0;" edge="1" parent="1">
          <mxGeometry width="50" height="50" relative="1" as="geometry">
            <mxPoint x="170" y="2680" as="sourcePoint" />
            <mxPoint x="170" y="2220" as="targetPoint" />
          </mxGeometry>
        </mxCell>
        <mxCell id="eqNbIaN43NpxdxYcb78C-4" value="" style="rounded=0;whiteSpace=wrap;html=1;fillColor=#1ba1e2;strokeColor=#006EAF;fontColor=#ffffff;" vertex="1" parent="1">
          <mxGeometry x="65" y="2290" width="100" height="50" as="geometry" />
        </mxCell>
        <mxCell id="eqNbIaN43NpxdxYcb78C-24" style="edgeStyle=orthogonalEdgeStyle;rounded=0;orthogonalLoop=1;jettySize=auto;html=1;entryX=0;entryY=0.5;entryDx=0;entryDy=0;curved=1;" edge="1" parent="1" source="eqNbIaN43NpxdxYcb78C-5" target="eqNbIaN43NpxdxYcb78C-13">
          <mxGeometry relative="1" as="geometry" />
        </mxCell>
        <mxCell id="eqNbIaN43NpxdxYcb78C-5" value="XvPutImage" style="rounded=0;whiteSpace=wrap;html=1;fillColor=#60a917;strokeColor=#2D7600;fontColor=#ffffff;" vertex="1" parent="1">
          <mxGeometry x="65" y="2350" width="100" height="50" as="geometry" />
        </mxCell>
        <mxCell id="eqNbIaN43NpxdxYcb78C-6" value="XvPutImage" style="rounded=0;whiteSpace=wrap;html=1;fillColor=#60a917;strokeColor=#2D7600;fontColor=#ffffff;" vertex="1" parent="1">
          <mxGeometry x="65" y="2410" width="100" height="50" as="geometry" />
        </mxCell>
        <mxCell id="eqNbIaN43NpxdxYcb78C-7" value="client" style="rounded=0;whiteSpace=wrap;html=1;" vertex="1" parent="1">
          <mxGeometry x="-180" y="2405" width="130" height="60" as="geometry" />
        </mxCell>
        <mxCell id="eqNbIaN43NpxdxYcb78C-8" value="Xorg Event Queue&lt;div&gt;&lt;br&gt;&lt;/div&gt;" style="text;html=1;align=center;verticalAlign=middle;whiteSpace=wrap;rounded=0;" vertex="1" parent="1">
          <mxGeometry x="55" y="2190" width="120" height="30" as="geometry" />
        </mxCell>
        <mxCell id="eqNbIaN43NpxdxYcb78C-10" value="" style="endArrow=classic;html=1;rounded=0;" edge="1" parent="1">
          <mxGeometry width="50" height="50" relative="1" as="geometry">
            <mxPoint x="-40" y="2415" as="sourcePoint" />
            <mxPoint x="40" y="2415" as="targetPoint" />
          </mxGeometry>
        </mxCell>
        <mxCell id="eqNbIaN43NpxdxYcb78C-12" value="" style="endArrow=classic;html=1;rounded=0;" edge="1" parent="1">
          <mxGeometry width="50" height="50" relative="1" as="geometry">
            <mxPoint x="40" y="2455.5" as="sourcePoint" />
            <mxPoint x="-40" y="2455" as="targetPoint" />
          </mxGeometry>
        </mxCell>
        <mxCell id="eqNbIaN43NpxdxYcb78C-13" value="Xv extension dispatch&lt;div&gt;&lt;br&gt;&lt;/div&gt;" style="text;html=1;align=center;verticalAlign=middle;whiteSpace=wrap;rounded=0;" vertex="1" parent="1">
          <mxGeometry x="250" y="2410" width="120" height="30" as="geometry" />
        </mxCell>
        <mxCell id="eqNbIaN43NpxdxYcb78C-14" value="ProcXvPutImage&lt;div&gt;&lt;br&gt;&lt;/div&gt;&lt;div&gt;&lt;br&gt;&lt;/div&gt;&lt;div&gt;&lt;br&gt;&lt;/div&gt;&lt;div&gt;&lt;br&gt;&lt;/div&gt;&lt;div&gt;&lt;br&gt;&lt;/div&gt;&lt;div&gt;&lt;br&gt;&lt;/div&gt;&lt;div&gt;&lt;br&gt;&lt;/div&gt;&lt;div&gt;&lt;br&gt;&lt;/div&gt;&lt;div&gt;&lt;br&gt;&lt;/div&gt;&lt;div&gt;&lt;br&gt;&lt;/div&gt;&lt;div&gt;atomic commit&lt;/div&gt;&lt;div&gt;&lt;br&gt;&lt;/div&gt;&lt;div&gt;&lt;br&gt;&lt;/div&gt;&lt;div&gt;&lt;br&gt;&lt;/div&gt;&lt;div&gt;&lt;br&gt;&lt;/div&gt;&lt;div&gt;&lt;br&gt;&lt;/div&gt;&lt;div&gt;&lt;br&gt;&lt;/div&gt;&lt;div&gt;&lt;br&gt;&lt;/div&gt;&lt;div&gt;&lt;br&gt;&lt;/div&gt;&lt;div&gt;&lt;br&gt;&lt;/div&gt;&lt;div&gt;&lt;br&gt;&lt;/div&gt;&lt;div&gt;&lt;br&gt;&lt;/div&gt;&lt;div&gt;&lt;br&gt;&lt;/div&gt;" style="rounded=0;whiteSpace=wrap;html=1;align=center;" vertex="1" parent="1">
          <mxGeometry x="440" y="2240" width="100" height="380" as="geometry" />
        </mxCell>
        <mxCell id="eqNbIaN43NpxdxYcb78C-20" value="" style="endArrow=none;html=1;rounded=0;" edge="1" parent="1">
          <mxGeometry width="50" height="50" relative="1" as="geometry">
            <mxPoint x="440" y="2395" as="sourcePoint" />
            <mxPoint x="510" y="2395" as="targetPoint" />
            <Array as="points">
              <mxPoint x="510" y="2395" />
              <mxPoint x="540" y="2395" />
            </Array>
          </mxGeometry>
        </mxCell>
        <mxCell id="eqNbIaN43NpxdxYcb78C-21" value="" style="endArrow=none;html=1;rounded=0;" edge="1" parent="1" target="eqNbIaN43NpxdxYcb78C-14">
          <mxGeometry width="50" height="50" relative="1" as="geometry">
            <mxPoint x="440" y="2445" as="sourcePoint" />
            <mxPoint x="510" y="2445" as="targetPoint" />
            <Array as="points">
              <mxPoint x="510" y="2445" />
              <mxPoint x="540" y="2445" />
            </Array>
          </mxGeometry>
        </mxCell>
        <mxCell id="eqNbIaN43NpxdxYcb78C-26" value="" style="rounded=0;whiteSpace=wrap;html=1;fillColor=#d80073;strokeColor=#A50040;fontColor=#ffffff;" vertex="1" parent="1">
          <mxGeometry x="65" y="2750" width="100" height="50" as="geometry" />
        </mxCell>
        <mxCell id="eqNbIaN43NpxdxYcb78C-27" value="" style="endArrow=none;dashed=1;html=1;rounded=0;" edge="1" parent="1">
          <mxGeometry width="50" height="50" relative="1" as="geometry">
            <mxPoint x="60" y="3200" as="sourcePoint" />
            <mxPoint x="60" y="2740" as="targetPoint" />
          </mxGeometry>
        </mxCell>
        <mxCell id="eqNbIaN43NpxdxYcb78C-28" value="" style="endArrow=none;dashed=1;html=1;rounded=0;" edge="1" parent="1">
          <mxGeometry width="50" height="50" relative="1" as="geometry">
            <mxPoint x="170" y="3200" as="sourcePoint" />
            <mxPoint x="170" y="2740" as="targetPoint" />
          </mxGeometry>
        </mxCell>
        <mxCell id="eqNbIaN43NpxdxYcb78C-29" value="" style="rounded=0;whiteSpace=wrap;html=1;fillColor=#1ba1e2;strokeColor=#006EAF;fontColor=#ffffff;" vertex="1" parent="1">
          <mxGeometry x="65" y="2810" width="100" height="50" as="geometry" />
        </mxCell>
        <mxCell id="eqNbIaN43NpxdxYcb78C-30" style="edgeStyle=orthogonalEdgeStyle;rounded=0;orthogonalLoop=1;jettySize=auto;html=1;entryX=0;entryY=0.5;entryDx=0;entryDy=0;curved=1;" edge="1" parent="1" source="eqNbIaN43NpxdxYcb78C-31" target="eqNbIaN43NpxdxYcb78C-37">
          <mxGeometry relative="1" as="geometry" />
        </mxCell>
        <mxCell id="eqNbIaN43NpxdxYcb78C-31" value="XvPutImage" style="rounded=0;whiteSpace=wrap;html=1;fillColor=#60a917;strokeColor=#2D7600;fontColor=#ffffff;" vertex="1" parent="1">
          <mxGeometry x="65" y="2870" width="100" height="50" as="geometry" />
        </mxCell>
        <mxCell id="eqNbIaN43NpxdxYcb78C-33" value="client" style="rounded=0;whiteSpace=wrap;html=1;" vertex="1" parent="1">
          <mxGeometry x="-175" y="2860" width="130" height="75" as="geometry" />
        </mxCell>
        <mxCell id="eqNbIaN43NpxdxYcb78C-34" value="Xorg Event Queue&lt;div&gt;&lt;br&gt;&lt;/div&gt;" style="text;html=1;align=center;verticalAlign=middle;whiteSpace=wrap;rounded=0;" vertex="1" parent="1">
          <mxGeometry x="55" y="2710" width="120" height="30" as="geometry" />
        </mxCell>
        <mxCell id="eqNbIaN43NpxdxYcb78C-35" value="" style="endArrow=classic;html=1;rounded=0;" edge="1" parent="1">
          <mxGeometry width="50" height="50" relative="1" as="geometry">
            <mxPoint x="-40" y="2875" as="sourcePoint" />
            <mxPoint x="40" y="2875" as="targetPoint" />
          </mxGeometry>
        </mxCell>
        <mxCell id="eqNbIaN43NpxdxYcb78C-36" value="" style="endArrow=classic;html=1;rounded=0;" edge="1" parent="1">
          <mxGeometry width="50" height="50" relative="1" as="geometry">
            <mxPoint x="40" y="2915.5" as="sourcePoint" />
            <mxPoint x="-40" y="2915" as="targetPoint" />
          </mxGeometry>
        </mxCell>
        <mxCell id="eqNbIaN43NpxdxYcb78C-37" value="Xv extension dispatch&lt;div&gt;&lt;br&gt;&lt;/div&gt;" style="text;html=1;align=center;verticalAlign=middle;whiteSpace=wrap;rounded=0;" vertex="1" parent="1">
          <mxGeometry x="250" y="2930" width="120" height="30" as="geometry" />
        </mxCell>
        <mxCell id="eqNbIaN43NpxdxYcb78C-42" style="edgeStyle=orthogonalEdgeStyle;rounded=0;orthogonalLoop=1;jettySize=auto;html=1;exitX=0.5;exitY=1;exitDx=0;exitDy=0;entryX=0.5;entryY=1;entryDx=0;entryDy=0;" edge="1" parent="1" source="eqNbIaN43NpxdxYcb78C-38" target="eqNbIaN43NpxdxYcb78C-41">
          <mxGeometry relative="1" as="geometry">
            <Array as="points">
              <mxPoint x="490" y="3160" />
              <mxPoint x="-110" y="3160" />
            </Array>
          </mxGeometry>
        </mxCell>
        <mxCell id="eqNbIaN43NpxdxYcb78C-38" value="ProcXvPutImage&lt;div&gt;&lt;br&gt;&lt;/div&gt;&lt;div&gt;&lt;br&gt;&lt;/div&gt;&lt;div&gt;&lt;br&gt;&lt;/div&gt;&lt;div&gt;&lt;br&gt;&lt;/div&gt;&lt;div&gt;&lt;br&gt;&lt;/div&gt;&lt;div&gt;&lt;br&gt;&lt;/div&gt;&lt;div&gt;&lt;br&gt;&lt;/div&gt;&lt;div&gt;&lt;br&gt;&lt;/div&gt;&lt;div&gt;&lt;br&gt;&lt;/div&gt;&lt;div&gt;&lt;br&gt;&lt;/div&gt;&lt;div&gt;atomic commit&lt;/div&gt;&lt;div&gt;&lt;br&gt;&lt;/div&gt;&lt;div&gt;&lt;br&gt;&lt;/div&gt;&lt;div&gt;&lt;br&gt;&lt;/div&gt;&lt;div&gt;&lt;br&gt;&lt;/div&gt;&lt;div&gt;&lt;br&gt;&lt;/div&gt;&lt;div&gt;&lt;br&gt;&lt;/div&gt;&lt;div&gt;&lt;br&gt;&lt;/div&gt;&lt;div&gt;&lt;br&gt;&lt;/div&gt;&lt;div&gt;&lt;br&gt;&lt;/div&gt;&lt;div&gt;&lt;br&gt;&lt;/div&gt;&lt;div&gt;&lt;br&gt;&lt;/div&gt;&lt;div&gt;&lt;br&gt;&lt;/div&gt;" style="rounded=0;whiteSpace=wrap;html=1;align=center;" vertex="1" parent="1">
          <mxGeometry x="440" y="2760" width="100" height="380" as="geometry" />
        </mxCell>
        <mxCell id="eqNbIaN43NpxdxYcb78C-39" value="" style="endArrow=none;html=1;rounded=0;" edge="1" parent="1">
          <mxGeometry width="50" height="50" relative="1" as="geometry">
            <mxPoint x="440" y="2915" as="sourcePoint" />
            <mxPoint x="510" y="2915" as="targetPoint" />
            <Array as="points">
              <mxPoint x="510" y="2915" />
              <mxPoint x="540" y="2915" />
            </Array>
          </mxGeometry>
        </mxCell>
        <mxCell id="eqNbIaN43NpxdxYcb78C-40" value="" style="endArrow=none;html=1;rounded=0;" edge="1" parent="1" target="eqNbIaN43NpxdxYcb78C-38">
          <mxGeometry width="50" height="50" relative="1" as="geometry">
            <mxPoint x="440" y="2965" as="sourcePoint" />
            <mxPoint x="510" y="2965" as="targetPoint" />
            <Array as="points">
              <mxPoint x="510" y="2965" />
              <mxPoint x="540" y="2965" />
            </Array>
          </mxGeometry>
        </mxCell>
        <mxCell id="eqNbIaN43NpxdxYcb78C-41" value="Xsync" style="text;html=1;align=center;verticalAlign=middle;whiteSpace=wrap;rounded=0;" vertex="1" parent="1">
          <mxGeometry x="-170" y="2900" width="120" height="50" as="geometry" />
        </mxCell>
        <mxCell id="eqNbIaN43NpxdxYcb78C-43" value="XvPutimage" style="rounded=0;whiteSpace=wrap;html=1;fillColor=#d80073;strokeColor=#A50040;fontColor=#ffffff;" vertex="1" parent="1">
          <mxGeometry x="885" y="2210" width="100" height="50" as="geometry" />
        </mxCell>
        <mxCell id="eqNbIaN43NpxdxYcb78C-44" value="" style="endArrow=none;dashed=1;html=1;rounded=0;" edge="1" parent="1">
          <mxGeometry width="50" height="50" relative="1" as="geometry">
            <mxPoint x="880" y="2660" as="sourcePoint" />
            <mxPoint x="880" y="2200" as="targetPoint" />
          </mxGeometry>
        </mxCell>
        <mxCell id="eqNbIaN43NpxdxYcb78C-45" value="" style="endArrow=none;dashed=1;html=1;rounded=0;" edge="1" parent="1">
          <mxGeometry width="50" height="50" relative="1" as="geometry">
            <mxPoint x="990" y="2660" as="sourcePoint" />
            <mxPoint x="990" y="2200" as="targetPoint" />
          </mxGeometry>
        </mxCell>
        <mxCell id="eqNbIaN43NpxdxYcb78C-46" value="XvPutimage" style="rounded=0;whiteSpace=wrap;html=1;fillColor=#d80073;strokeColor=#A50040;fontColor=#ffffff;" vertex="1" parent="1">
          <mxGeometry x="885" y="2330" width="100" height="50" as="geometry" />
        </mxCell>
        <mxCell id="eqNbIaN43NpxdxYcb78C-47" style="edgeStyle=orthogonalEdgeStyle;rounded=0;orthogonalLoop=1;jettySize=auto;html=1;entryX=0;entryY=0.5;entryDx=0;entryDy=0;curved=1;" edge="1" parent="1" source="eqNbIaN43NpxdxYcb78C-48" target="eqNbIaN43NpxdxYcb78C-54">
          <mxGeometry relative="1" as="geometry" />
        </mxCell>
        <mxCell id="eqNbIaN43NpxdxYcb78C-48" value="XvPutImage" style="rounded=0;whiteSpace=wrap;html=1;fillColor=#60a917;strokeColor=#2D7600;fontColor=#ffffff;" vertex="1" parent="1">
          <mxGeometry x="885" y="2270" width="100" height="50" as="geometry" />
        </mxCell>
        <mxCell id="eqNbIaN43NpxdxYcb78C-50" value="client2" style="rounded=0;whiteSpace=wrap;html=1;" vertex="1" parent="1">
          <mxGeometry x="640" y="2330" width="130" height="60" as="geometry" />
        </mxCell>
        <mxCell id="eqNbIaN43NpxdxYcb78C-51" value="Xorg Event Queue&lt;div&gt;&lt;br&gt;&lt;/div&gt;" style="text;html=1;align=center;verticalAlign=middle;whiteSpace=wrap;rounded=0;" vertex="1" parent="1">
          <mxGeometry x="875" y="2170" width="120" height="30" as="geometry" />
        </mxCell>
        <mxCell id="eqNbIaN43NpxdxYcb78C-52" value="" style="endArrow=classic;html=1;rounded=0;" edge="1" parent="1">
          <mxGeometry width="50" height="50" relative="1" as="geometry">
            <mxPoint x="790" y="2339" as="sourcePoint" />
            <mxPoint x="870" y="2339" as="targetPoint" />
          </mxGeometry>
        </mxCell>
        <mxCell id="eqNbIaN43NpxdxYcb78C-53" value="" style="endArrow=classic;html=1;rounded=0;" edge="1" parent="1">
          <mxGeometry width="50" height="50" relative="1" as="geometry">
            <mxPoint x="870" y="2379.5" as="sourcePoint" />
            <mxPoint x="790" y="2379" as="targetPoint" />
          </mxGeometry>
        </mxCell>
        <mxCell id="eqNbIaN43NpxdxYcb78C-54" value="Xv extension dispatch&lt;div&gt;&lt;br&gt;&lt;/div&gt;" style="text;html=1;align=center;verticalAlign=middle;whiteSpace=wrap;rounded=0;" vertex="1" parent="1">
          <mxGeometry x="1070" y="2390" width="120" height="30" as="geometry" />
        </mxCell>
        <mxCell id="eqNbIaN43NpxdxYcb78C-55" value="ProcXvPutImage&lt;div&gt;&lt;br&gt;&lt;/div&gt;&lt;div&gt;&lt;br&gt;&lt;/div&gt;&lt;div&gt;&lt;br&gt;&lt;/div&gt;&lt;div&gt;&lt;br&gt;&lt;/div&gt;&lt;div&gt;&lt;br&gt;&lt;/div&gt;&lt;div&gt;&lt;br&gt;&lt;/div&gt;&lt;div&gt;&lt;br&gt;&lt;/div&gt;&lt;div&gt;&lt;br&gt;&lt;/div&gt;&lt;div&gt;&lt;br&gt;&lt;/div&gt;&lt;div&gt;&lt;br&gt;&lt;/div&gt;&lt;div&gt;atomic commit&lt;/div&gt;&lt;div&gt;&lt;br&gt;&lt;/div&gt;&lt;div&gt;&lt;br&gt;&lt;/div&gt;&lt;div&gt;&lt;br&gt;&lt;/div&gt;&lt;div&gt;&lt;br&gt;&lt;/div&gt;&lt;div&gt;&lt;br&gt;&lt;/div&gt;&lt;div&gt;&lt;br&gt;&lt;/div&gt;&lt;div&gt;&lt;br&gt;&lt;/div&gt;&lt;div&gt;&lt;br&gt;&lt;/div&gt;&lt;div&gt;&lt;br&gt;&lt;/div&gt;&lt;div&gt;&lt;br&gt;&lt;/div&gt;&lt;div&gt;&lt;br&gt;&lt;/div&gt;&lt;div&gt;&lt;br&gt;&lt;/div&gt;" style="rounded=0;whiteSpace=wrap;html=1;align=center;" vertex="1" parent="1">
          <mxGeometry x="1260" y="2220" width="100" height="380" as="geometry" />
        </mxCell>
        <mxCell id="eqNbIaN43NpxdxYcb78C-56" value="" style="endArrow=none;html=1;rounded=0;" edge="1" parent="1">
          <mxGeometry width="50" height="50" relative="1" as="geometry">
            <mxPoint x="1260" y="2375" as="sourcePoint" />
            <mxPoint x="1330" y="2375" as="targetPoint" />
            <Array as="points">
              <mxPoint x="1330" y="2375" />
              <mxPoint x="1360" y="2375" />
            </Array>
          </mxGeometry>
        </mxCell>
        <mxCell id="eqNbIaN43NpxdxYcb78C-57" value="" style="endArrow=none;html=1;rounded=0;" edge="1" parent="1" target="eqNbIaN43NpxdxYcb78C-55">
          <mxGeometry width="50" height="50" relative="1" as="geometry">
            <mxPoint x="1260" y="2425" as="sourcePoint" />
            <mxPoint x="1330" y="2425" as="targetPoint" />
            <Array as="points">
              <mxPoint x="1330" y="2425" />
              <mxPoint x="1360" y="2425" />
            </Array>
          </mxGeometry>
        </mxCell>
        <mxCell id="eqNbIaN43NpxdxYcb78C-58" value="client1" style="rounded=0;whiteSpace=wrap;html=1;" vertex="1" parent="1">
          <mxGeometry x="640" y="2265" width="130" height="60" as="geometry" />
        </mxCell>
        <mxCell id="eqNbIaN43NpxdxYcb78C-59" value="" style="endArrow=classic;html=1;rounded=0;" edge="1" parent="1">
          <mxGeometry width="50" height="50" relative="1" as="geometry">
            <mxPoint x="790" y="2280" as="sourcePoint" />
            <mxPoint x="870" y="2280" as="targetPoint" />
          </mxGeometry>
        </mxCell>
        <mxCell id="eqNbIaN43NpxdxYcb78C-60" value="" style="endArrow=classic;html=1;rounded=0;" edge="1" parent="1">
          <mxGeometry width="50" height="50" relative="1" as="geometry">
            <mxPoint x="870" y="2320.5" as="sourcePoint" />
            <mxPoint x="790" y="2320" as="targetPoint" />
          </mxGeometry>
        </mxCell>
        <mxCell id="eqNbIaN43NpxdxYcb78C-61" value="Xsync" style="text;html=1;align=center;verticalAlign=middle;whiteSpace=wrap;rounded=0;" vertex="1" parent="1">
          <mxGeometry x="645" y="2290" width="120" height="50" as="geometry" />
        </mxCell>
        <mxCell id="eqNbIaN43NpxdxYcb78C-62" value="Xsync" style="text;html=1;align=center;verticalAlign=middle;whiteSpace=wrap;rounded=0;" vertex="1" parent="1">
          <mxGeometry x="645" y="2355" width="120" height="50" as="geometry" />
        </mxCell>
        <mxCell id="eqNbIaN43NpxdxYcb78C-63" value="XvPutimage" style="rounded=0;whiteSpace=wrap;html=1;fillColor=#d80073;strokeColor=#A50040;fontColor=#ffffff;" vertex="1" parent="1">
          <mxGeometry x="875" y="2790" width="100" height="50" as="geometry" />
        </mxCell>
        <mxCell id="eqNbIaN43NpxdxYcb78C-64" value="" style="endArrow=none;dashed=1;html=1;rounded=0;" edge="1" parent="1">
          <mxGeometry width="50" height="50" relative="1" as="geometry">
            <mxPoint x="870" y="3240" as="sourcePoint" />
            <mxPoint x="870" y="2780" as="targetPoint" />
          </mxGeometry>
        </mxCell>
        <mxCell id="eqNbIaN43NpxdxYcb78C-65" value="" style="endArrow=none;dashed=1;html=1;rounded=0;" edge="1" parent="1">
          <mxGeometry width="50" height="50" relative="1" as="geometry">
            <mxPoint x="980" y="3240" as="sourcePoint" />
            <mxPoint x="980" y="2780" as="targetPoint" />
          </mxGeometry>
        </mxCell>
        <mxCell id="eqNbIaN43NpxdxYcb78C-66" value="XvPutimage" style="rounded=0;whiteSpace=wrap;html=1;fillColor=#d80073;strokeColor=#A50040;fontColor=#ffffff;" vertex="1" parent="1">
          <mxGeometry x="875" y="2910" width="100" height="50" as="geometry" />
        </mxCell>
        <mxCell id="eqNbIaN43NpxdxYcb78C-67" style="edgeStyle=orthogonalEdgeStyle;rounded=0;orthogonalLoop=1;jettySize=auto;html=1;entryX=0;entryY=0.5;entryDx=0;entryDy=0;curved=1;" edge="1" parent="1" source="eqNbIaN43NpxdxYcb78C-68" target="eqNbIaN43NpxdxYcb78C-73">
          <mxGeometry relative="1" as="geometry" />
        </mxCell>
        <mxCell id="eqNbIaN43NpxdxYcb78C-68" value="XvPutImage" style="rounded=0;whiteSpace=wrap;html=1;fillColor=#60a917;strokeColor=#2D7600;fontColor=#ffffff;" vertex="1" parent="1">
          <mxGeometry x="875" y="2850" width="100" height="50" as="geometry" />
        </mxCell>
        <mxCell id="eqNbIaN43NpxdxYcb78C-69" value="client2" style="rounded=0;whiteSpace=wrap;html=1;" vertex="1" parent="1">
          <mxGeometry x="630" y="2910" width="130" height="60" as="geometry" />
        </mxCell>
        <mxCell id="eqNbIaN43NpxdxYcb78C-70" value="Xorg Event Queue&lt;div&gt;&lt;br&gt;&lt;/div&gt;" style="text;html=1;align=center;verticalAlign=middle;whiteSpace=wrap;rounded=0;" vertex="1" parent="1">
          <mxGeometry x="865" y="2750" width="120" height="30" as="geometry" />
        </mxCell>
        <mxCell id="eqNbIaN43NpxdxYcb78C-71" value="" style="endArrow=classic;html=1;rounded=0;" edge="1" parent="1">
          <mxGeometry width="50" height="50" relative="1" as="geometry">
            <mxPoint x="780" y="2919" as="sourcePoint" />
            <mxPoint x="860" y="2919" as="targetPoint" />
          </mxGeometry>
        </mxCell>
        <mxCell id="eqNbIaN43NpxdxYcb78C-72" value="" style="endArrow=classic;html=1;rounded=0;" edge="1" parent="1">
          <mxGeometry width="50" height="50" relative="1" as="geometry">
            <mxPoint x="860" y="2959.5" as="sourcePoint" />
            <mxPoint x="780" y="2959" as="targetPoint" />
          </mxGeometry>
        </mxCell>
        <mxCell id="eqNbIaN43NpxdxYcb78C-73" value="Xv extension dispatch&lt;div&gt;&lt;br&gt;&lt;/div&gt;" style="text;html=1;align=center;verticalAlign=middle;whiteSpace=wrap;rounded=0;" vertex="1" parent="1">
          <mxGeometry x="1060" y="2970" width="120" height="30" as="geometry" />
        </mxCell>
        <mxCell id="eqNbIaN43NpxdxYcb78C-74" value="ProcXvPutImage" style="rounded=0;whiteSpace=wrap;html=1;align=center;" vertex="1" parent="1">
          <mxGeometry x="1200" y="2930" width="100" height="40" as="geometry" />
        </mxCell>
        <mxCell id="eqNbIaN43NpxdxYcb78C-77" value="client1" style="rounded=0;whiteSpace=wrap;html=1;" vertex="1" parent="1">
          <mxGeometry x="630" y="2845" width="130" height="60" as="geometry" />
        </mxCell>
        <mxCell id="eqNbIaN43NpxdxYcb78C-78" value="" style="endArrow=classic;html=1;rounded=0;" edge="1" parent="1">
          <mxGeometry width="50" height="50" relative="1" as="geometry">
            <mxPoint x="780" y="2860" as="sourcePoint" />
            <mxPoint x="860" y="2860" as="targetPoint" />
          </mxGeometry>
        </mxCell>
        <mxCell id="eqNbIaN43NpxdxYcb78C-79" value="" style="endArrow=classic;html=1;rounded=0;" edge="1" parent="1">
          <mxGeometry width="50" height="50" relative="1" as="geometry">
            <mxPoint x="860" y="2900.5" as="sourcePoint" />
            <mxPoint x="780" y="2900" as="targetPoint" />
          </mxGeometry>
        </mxCell>
        <mxCell id="eqNbIaN43NpxdxYcb78C-80" value="Xsync" style="text;html=1;align=center;verticalAlign=middle;whiteSpace=wrap;rounded=0;" vertex="1" parent="1">
          <mxGeometry x="635" y="2870" width="120" height="50" as="geometry" />
        </mxCell>
        <mxCell id="eqNbIaN43NpxdxYcb78C-81" value="Xsync" style="text;html=1;align=center;verticalAlign=middle;whiteSpace=wrap;rounded=0;" vertex="1" parent="1">
          <mxGeometry x="635" y="2935" width="120" height="50" as="geometry" />
        </mxCell>
        <mxCell id="eqNbIaN43NpxdxYcb78C-83" value="Proc threads&lt;div&gt;&lt;br&gt;&lt;/div&gt;&lt;div&gt;&lt;br&gt;&lt;/div&gt;&lt;div&gt;&lt;br&gt;&lt;/div&gt;&lt;div&gt;&lt;br&gt;&lt;/div&gt;&lt;div&gt;&lt;br&gt;&lt;/div&gt;&lt;div&gt;&lt;br&gt;&lt;/div&gt;&lt;div&gt;&lt;br&gt;&lt;/div&gt;&lt;div&gt;&lt;br&gt;&lt;/div&gt;&lt;div&gt;&lt;br&gt;&lt;/div&gt;&lt;div&gt;&lt;br&gt;&lt;/div&gt;&lt;div&gt;atomic commit&lt;/div&gt;&lt;div&gt;&lt;br&gt;&lt;/div&gt;&lt;div&gt;&lt;br&gt;&lt;/div&gt;&lt;div&gt;&lt;br&gt;&lt;/div&gt;&lt;div&gt;&lt;br&gt;&lt;/div&gt;&lt;div&gt;&lt;br&gt;&lt;/div&gt;&lt;div&gt;&lt;br&gt;&lt;/div&gt;&lt;div&gt;&lt;br&gt;&lt;/div&gt;&lt;div&gt;&lt;br&gt;&lt;/div&gt;&lt;div&gt;&lt;br&gt;&lt;/div&gt;&lt;div&gt;&lt;br&gt;&lt;/div&gt;&lt;div&gt;&lt;br&gt;&lt;/div&gt;&lt;div&gt;&lt;br&gt;&lt;/div&gt;" style="rounded=0;whiteSpace=wrap;html=1;align=center;" vertex="1" parent="1">
          <mxGeometry x="1340" y="2770" width="100" height="380" as="geometry" />
        </mxCell>
        <mxCell id="eqNbIaN43NpxdxYcb78C-84" value="" style="endArrow=none;html=1;rounded=0;" edge="1" parent="1">
          <mxGeometry width="50" height="50" relative="1" as="geometry">
            <mxPoint x="1340" y="2925" as="sourcePoint" />
            <mxPoint x="1410" y="2925" as="targetPoint" />
            <Array as="points">
              <mxPoint x="1410" y="2925" />
              <mxPoint x="1440" y="2925" />
            </Array>
          </mxGeometry>
        </mxCell>
        <mxCell id="eqNbIaN43NpxdxYcb78C-85" value="" style="endArrow=none;html=1;rounded=0;" edge="1" parent="1" target="eqNbIaN43NpxdxYcb78C-83">
          <mxGeometry width="50" height="50" relative="1" as="geometry">
            <mxPoint x="1340" y="2975" as="sourcePoint" />
            <mxPoint x="1410" y="2975" as="targetPoint" />
            <Array as="points">
              <mxPoint x="1410" y="2975" />
              <mxPoint x="1440" y="2975" />
            </Array>
          </mxGeometry>
        </mxCell>
        <mxCell id="eqNbIaN43NpxdxYcb78C-86" value="ProcXvPutImage" style="rounded=0;whiteSpace=wrap;html=1;align=center;" vertex="1" parent="1">
          <mxGeometry x="1200" y="2990" width="100" height="40" as="geometry" />
        </mxCell>
        <mxCell id="eqNbIaN43NpxdxYcb78C-88" value="XvPutimage" style="rounded=0;whiteSpace=wrap;html=1;fillColor=#d80073;strokeColor=#A50040;fontColor=#ffffff;" vertex="1" parent="1">
          <mxGeometry x="885" y="2450" width="100" height="50" as="geometry" />
        </mxCell>
        <mxCell id="eqNbIaN43NpxdxYcb78C-89" value="XvPutImage" style="rounded=0;whiteSpace=wrap;html=1;fillColor=#60a917;strokeColor=#2D7600;fontColor=#ffffff;" vertex="1" parent="1">
          <mxGeometry x="885" y="2390" width="100" height="50" as="geometry" />
        </mxCell>
        <mxCell id="eqNbIaN43NpxdxYcb78C-90" value="XvPutimage" style="rounded=0;whiteSpace=wrap;html=1;fillColor=#d80073;strokeColor=#A50040;fontColor=#ffffff;" vertex="1" parent="1">
          <mxGeometry x="875" y="2970" width="100" height="50" as="geometry" />
        </mxCell>
        <mxCell id="eqNbIaN43NpxdxYcb78C-91" value="XvPutImage" style="rounded=0;whiteSpace=wrap;html=1;fillColor=#60a917;strokeColor=#2D7600;fontColor=#ffffff;" vertex="1" parent="1">
          <mxGeometry x="875" y="3030" width="100" height="50" as="geometry" />
        </mxCell>
        <mxCell id="eqNbIaN43NpxdxYcb78C-92" value="" style="rounded=0;whiteSpace=wrap;html=1;fillColor=#d80073;strokeColor=#A50040;fontColor=#ffffff;" vertex="1" parent="1">
          <mxGeometry x="65" y="1690" width="100" height="50" as="geometry" />
        </mxCell>
        <mxCell id="eqNbIaN43NpxdxYcb78C-93" value="" style="endArrow=none;dashed=1;html=1;rounded=0;" edge="1" parent="1">
          <mxGeometry width="50" height="50" relative="1" as="geometry">
            <mxPoint x="60" y="2140" as="sourcePoint" />
            <mxPoint x="60" y="1680" as="targetPoint" />
          </mxGeometry>
        </mxCell>
        <mxCell id="eqNbIaN43NpxdxYcb78C-94" value="" style="endArrow=none;dashed=1;html=1;rounded=0;" edge="1" parent="1">
          <mxGeometry width="50" height="50" relative="1" as="geometry">
            <mxPoint x="170" y="2140" as="sourcePoint" />
            <mxPoint x="170" y="1680" as="targetPoint" />
          </mxGeometry>
        </mxCell>
        <mxCell id="eqNbIaN43NpxdxYcb78C-95" value="" style="rounded=0;whiteSpace=wrap;html=1;fillColor=#1ba1e2;strokeColor=#006EAF;fontColor=#ffffff;" vertex="1" parent="1">
          <mxGeometry x="65" y="1750" width="100" height="50" as="geometry" />
        </mxCell>
        <mxCell id="eqNbIaN43NpxdxYcb78C-96" style="edgeStyle=orthogonalEdgeStyle;rounded=0;orthogonalLoop=1;jettySize=auto;html=1;entryX=0;entryY=0.5;entryDx=0;entryDy=0;curved=1;" edge="1" parent="1" source="eqNbIaN43NpxdxYcb78C-97" target="eqNbIaN43NpxdxYcb78C-103">
          <mxGeometry relative="1" as="geometry" />
        </mxCell>
        <mxCell id="eqNbIaN43NpxdxYcb78C-97" value="XvPutImage" style="rounded=0;whiteSpace=wrap;html=1;fillColor=#60a917;strokeColor=#2D7600;fontColor=#ffffff;" vertex="1" parent="1">
          <mxGeometry x="65" y="1810" width="100" height="50" as="geometry" />
        </mxCell>
        <mxCell id="eqNbIaN43NpxdxYcb78C-100" value="Xorg Event Queue&lt;div&gt;&lt;br&gt;&lt;/div&gt;" style="text;html=1;align=center;verticalAlign=middle;whiteSpace=wrap;rounded=0;" vertex="1" parent="1">
          <mxGeometry x="55" y="1650" width="120" height="30" as="geometry" />
        </mxCell>
        <mxCell id="eqNbIaN43NpxdxYcb78C-103" value="Xv extension dispatch&lt;div&gt;&lt;br&gt;&lt;/div&gt;" style="text;html=1;align=center;verticalAlign=middle;whiteSpace=wrap;rounded=0;" vertex="1" parent="1">
          <mxGeometry x="250" y="1870" width="120" height="30" as="geometry" />
        </mxCell>
        <mxCell id="eqNbIaN43NpxdxYcb78C-104" value="ProcXvPutImage&lt;div&gt;&lt;br&gt;&lt;/div&gt;&lt;div&gt;&lt;br&gt;&lt;/div&gt;&lt;div&gt;&lt;br&gt;&lt;/div&gt;&lt;div&gt;&lt;br&gt;&lt;/div&gt;&lt;div&gt;&lt;br&gt;&lt;/div&gt;&lt;div&gt;&lt;br&gt;&lt;/div&gt;&lt;div&gt;&lt;br&gt;&lt;/div&gt;&lt;div&gt;&lt;br&gt;&lt;/div&gt;&lt;div&gt;&lt;br&gt;&lt;/div&gt;&lt;div&gt;&lt;br&gt;&lt;/div&gt;&lt;div&gt;atomic commit&lt;/div&gt;&lt;div&gt;&lt;br&gt;&lt;/div&gt;&lt;div&gt;&lt;br&gt;&lt;/div&gt;&lt;div&gt;&lt;br&gt;&lt;/div&gt;&lt;div&gt;&lt;br&gt;&lt;/div&gt;&lt;div&gt;&lt;br&gt;&lt;/div&gt;&lt;div&gt;&lt;br&gt;&lt;/div&gt;&lt;div&gt;&lt;br&gt;&lt;/div&gt;&lt;div&gt;&lt;br&gt;&lt;/div&gt;&lt;div&gt;&lt;br&gt;&lt;/div&gt;&lt;div&gt;&lt;br&gt;&lt;/div&gt;&lt;div&gt;&lt;br&gt;&lt;/div&gt;&lt;div&gt;&lt;br&gt;&lt;/div&gt;" style="rounded=0;whiteSpace=wrap;html=1;align=center;" vertex="1" parent="1">
          <mxGeometry x="440" y="1700" width="100" height="380" as="geometry" />
        </mxCell>
        <mxCell id="eqNbIaN43NpxdxYcb78C-105" value="" style="endArrow=none;html=1;rounded=0;" edge="1" parent="1">
          <mxGeometry width="50" height="50" relative="1" as="geometry">
            <mxPoint x="440" y="1855" as="sourcePoint" />
            <mxPoint x="510" y="1855" as="targetPoint" />
            <Array as="points">
              <mxPoint x="510" y="1855" />
              <mxPoint x="540" y="1855" />
            </Array>
          </mxGeometry>
        </mxCell>
        <mxCell id="eqNbIaN43NpxdxYcb78C-106" value="" style="endArrow=none;html=1;rounded=0;" edge="1" parent="1" target="eqNbIaN43NpxdxYcb78C-104">
          <mxGeometry width="50" height="50" relative="1" as="geometry">
            <mxPoint x="440" y="1905" as="sourcePoint" />
            <mxPoint x="510" y="1905" as="targetPoint" />
            <Array as="points">
              <mxPoint x="510" y="1905" />
              <mxPoint x="540" y="1905" />
            </Array>
          </mxGeometry>
        </mxCell>
        <mxCell id="eqNbIaN43NpxdxYcb78C-107" value="client" style="rounded=0;whiteSpace=wrap;html=1;" vertex="1" parent="1">
          <mxGeometry x="-180" y="1810" width="130" height="60" as="geometry" />
        </mxCell>
        <mxCell id="eqNbIaN43NpxdxYcb78C-108" value="" style="endArrow=classic;html=1;rounded=0;" edge="1" parent="1">
          <mxGeometry width="50" height="50" relative="1" as="geometry">
            <mxPoint x="-40" y="1820" as="sourcePoint" />
            <mxPoint x="40" y="1820" as="targetPoint" />
          </mxGeometry>
        </mxCell>
        <mxCell id="eqNbIaN43NpxdxYcb78C-109" value="" style="endArrow=classic;html=1;rounded=0;" edge="1" parent="1">
          <mxGeometry width="50" height="50" relative="1" as="geometry">
            <mxPoint x="40" y="1860.5" as="sourcePoint" />
            <mxPoint x="-40" y="1860" as="targetPoint" />
          </mxGeometry>
        </mxCell>
      </root>
    </mxGraphModel>
  </diagram>
</mxfile>
